<svg width="114" height="114" viewBox="0 0 114 114" fill="none" xmlns="http://www.w3.org/2000/svg">
<path d="M105.372 56.2207L59.516 10.398C59.1858 10.0672 58.7936 9.80476 58.3619 9.62568C57.9302 9.44661 57.4673 9.35443 56.9999 9.35443C56.5326 9.35443 56.0697 9.44661 55.638 9.62568C55.2063 9.80476 54.8141 10.0672 54.4839 10.398L8.62788 56.2207C7.29194 57.5566 6.53491 59.3713 6.53491 61.2639C6.53491 65.1937 9.73003 68.3889 13.6599 68.3889H18.4916V101.086C18.4916 103.056 20.0835 104.648 22.0541 104.648H49.8749V79.7109H62.3437V104.648H91.9459C93.9164 104.648 95.5084 103.056 95.5084 101.086V68.3889H100.34C102.233 68.3889 104.047 67.643 105.383 66.2959C108.155 63.5127 108.155 59.0039 105.372 56.2207V56.2207Z" fill="black"/>
</svg>
