<svg width="285" height="290" viewBox="0 0 285 290" fill="none" xmlns="http://www.w3.org/2000/svg">
<mask id="path-1-inside-1_37_100" fill="white">
<path d="M253.598 239.799C232.398 264.077 203.691 280.57 172.04 286.656C140.389 292.742 107.611 288.071 78.92 273.386C50.2286 258.702 27.2704 234.846 13.6958 205.614C0.12123 176.381 -3.2903 143.449 4.00368 112.054C11.2977 80.6594 28.8784 52.6045 53.9504 32.3505C79.0223 12.0964 110.146 0.806059 142.373 0.274672C174.599 -0.256714 206.078 10.0014 231.804 29.4178C257.53 48.8342 276.026 76.2942 284.351 107.431L233.813 120.944C228.502 101.079 216.702 83.5608 200.289 71.1738C183.877 58.7868 163.794 52.2425 143.235 52.5815C122.676 52.9205 102.82 60.1233 86.8247 73.0447C70.8296 85.9661 59.6137 103.864 54.9604 123.893C50.3071 143.922 52.4835 164.931 61.1436 183.581C69.8037 202.23 84.4503 217.449 102.754 226.817C121.059 236.186 141.969 239.165 162.162 235.283C182.354 231.4 200.669 220.878 214.193 205.39L253.598 239.799Z"/>
</mask>
<path d="M253.598 239.799C232.398 264.077 203.691 280.57 172.04 286.656C140.389 292.742 107.611 288.071 78.92 273.386C50.2286 258.702 27.2704 234.846 13.6958 205.614C0.12123 176.381 -3.2903 143.449 4.00368 112.054C11.2977 80.6594 28.8784 52.6045 53.9504 32.3505C79.0223 12.0964 110.146 0.806059 142.373 0.274672C174.599 -0.256714 206.078 10.0014 231.804 29.4178C257.53 48.8342 276.026 76.2942 284.351 107.431L233.813 120.944C228.502 101.079 216.702 83.5608 200.289 71.1738C183.877 58.7868 163.794 52.2425 143.235 52.5815C122.676 52.9205 102.82 60.1233 86.8247 73.0447C70.8296 85.9661 59.6137 103.864 54.9604 123.893C50.3071 143.922 52.4835 164.931 61.1436 183.581C69.8037 202.23 84.4503 217.449 102.754 226.817C121.059 236.186 141.969 239.165 162.162 235.283C182.354 231.4 200.669 220.878 214.193 205.39L253.598 239.799Z" fill="#967E76" stroke="#967E76" stroke-width="36" mask="url(#path-1-inside-1_37_100)"/>
</svg>
