<svg width="288" height="290" viewBox="0 0 288 290" fill="none" xmlns="http://www.w3.org/2000/svg">
<mask id="path-1-inside-1_37_96" fill="white">
<path d="M261.469 229.949C241.759 256.952 213.296 276.284 180.929 284.654C148.563 293.023 114.296 289.91 83.9674 275.847C53.6386 261.783 29.1243 237.639 14.6016 207.527C0.0788801 177.416 -3.55376 143.2 4.32265 110.71C12.1991 78.2205 31.0972 49.4669 57.797 29.3487C84.4968 9.23056 117.346 -1.00742 150.748 0.379216C184.15 1.76585 216.038 14.6913 240.979 36.9532C265.919 59.2152 282.369 89.4362 287.526 122.467L235.838 130.536C232.548 109.463 222.054 90.1834 206.143 75.9811C190.231 61.7787 169.888 53.5327 148.579 52.6481C127.269 51.7635 106.312 58.295 89.2787 71.1297C72.2451 83.9644 60.1888 102.308 55.1639 123.036C50.139 143.763 52.4565 165.591 61.7215 184.802C70.9865 204.012 86.6258 219.415 105.975 228.387C125.323 237.359 147.184 239.345 167.833 234.006C188.482 228.666 206.64 216.333 219.215 199.106L261.469 229.949Z"/>
</mask>
<path d="M261.469 229.949C241.759 256.952 213.296 276.284 180.929 284.654C148.563 293.023 114.296 289.91 83.9674 275.847C53.6386 261.783 29.1243 237.639 14.6016 207.527C0.0788801 177.416 -3.55376 143.2 4.32265 110.71C12.1991 78.2205 31.0972 49.4669 57.797 29.3487C84.4968 9.23056 117.346 -1.00742 150.748 0.379216C184.15 1.76585 216.038 14.6913 240.979 36.9532C265.919 59.2152 282.369 89.4362 287.526 122.467L235.838 130.536C232.548 109.463 222.054 90.1834 206.143 75.9811C190.231 61.7787 169.888 53.5327 148.579 52.6481C127.269 51.7635 106.312 58.295 89.2787 71.1297C72.2451 83.9644 60.1888 102.308 55.1639 123.036C50.139 143.763 52.4565 165.591 61.7215 184.802C70.9865 204.012 86.6258 219.415 105.975 228.387C125.323 237.359 147.184 239.345 167.833 234.006C188.482 228.666 206.64 216.333 219.215 199.106L261.469 229.949Z" fill="#967E76" stroke="#967E76" stroke-width="36" mask="url(#path-1-inside-1_37_96)"/>
</svg>
