<svg width="289" height="289" viewBox="0 0 289 289" fill="none" xmlns="http://www.w3.org/2000/svg">
<mask id="path-1-inside-1_37_86" fill="white">
<path d="M210.553 15.9804C241.981 32.1329 266.401 59.2412 279.195 92.1793C291.99 125.117 292.271 161.602 279.987 194.734C267.703 227.866 243.705 255.348 212.53 271.984C181.355 288.62 145.165 293.256 110.804 285.016C76.4423 276.776 46.291 256.231 26.0515 227.266C5.81209 198.301 -3.11247 162.924 0.96549 127.824C5.04345 92.7242 21.8412 60.3353 48.1824 36.782C74.5236 13.2287 108.582 0.143595 143.918 0.0011737L144.128 52.3146C121.586 52.4055 99.8574 60.7533 83.0526 75.7796C66.2479 90.8058 55.5314 111.469 52.9298 133.861C50.3282 156.254 56.0218 178.823 68.9339 197.302C81.846 215.781 101.082 228.888 123.003 234.145C144.925 239.401 168.012 236.444 187.901 225.83C207.789 215.217 223.099 197.684 230.936 176.548C238.773 155.411 238.593 132.135 230.431 111.121C222.269 90.1078 206.689 72.8136 186.639 62.5089L210.553 15.9804Z"/>
</mask>
<path d="M210.553 15.9804C241.981 32.1329 266.401 59.2412 279.195 92.1793C291.99 125.117 292.271 161.602 279.987 194.734C267.703 227.866 243.705 255.348 212.53 271.984C181.355 288.62 145.165 293.256 110.804 285.016C76.4423 276.776 46.291 256.231 26.0515 227.266C5.81209 198.301 -3.11247 162.924 0.96549 127.824C5.04345 92.7242 21.8412 60.3353 48.1824 36.782C74.5236 13.2287 108.582 0.143595 143.918 0.0011737L144.128 52.3146C121.586 52.4055 99.8574 60.7533 83.0526 75.7796C66.2479 90.8058 55.5314 111.469 52.9298 133.861C50.3282 156.254 56.0218 178.823 68.9339 197.302C81.846 215.781 101.082 228.888 123.003 234.145C144.925 239.401 168.012 236.444 187.901 225.83C207.789 215.217 223.099 197.684 230.936 176.548C238.773 155.411 238.593 132.135 230.431 111.121C222.269 90.1078 206.689 72.8136 186.639 62.5089L210.553 15.9804Z" fill="#967E76" stroke="#967E76" stroke-width="36" mask="url(#path-1-inside-1_37_86)"/>
</svg>
