<svg width="290" height="290" viewBox="0 0 290 290" fill="none" xmlns="http://www.w3.org/2000/svg">
<mask id="path-1-inside-1_37_101" fill="white">
<path d="M210.808 16.2353C242.236 32.3877 266.656 59.4961 279.45 92.4342C292.244 125.372 292.526 161.857 280.242 194.989C267.958 228.121 243.96 255.603 212.785 272.239C181.61 288.875 145.42 293.511 111.059 285.271C76.6972 277.031 46.5459 256.486 26.3064 227.521C6.06698 198.556 -2.85758 163.178 1.22037 128.079C5.29833 92.9791 22.0961 60.5902 48.4373 37.0369C74.7784 13.4835 108.837 0.398478 144.172 0.256057L144.383 52.5695C121.84 52.6604 100.112 61.0082 83.3075 76.0344C66.5027 91.0607 55.7863 111.724 53.1847 134.116C50.5831 156.508 56.2767 179.078 69.1888 197.557C82.1009 216.036 101.336 229.143 123.258 234.4C145.179 239.656 168.267 236.698 188.156 226.085C208.044 215.472 223.354 197.939 231.191 176.802C239.028 155.665 238.848 132.389 230.686 111.376C222.523 90.3627 206.944 73.0685 186.894 62.7638L210.808 16.2353Z"/>
</mask>
<path d="M210.808 16.2353C242.236 32.3877 266.656 59.4961 279.45 92.4342C292.244 125.372 292.526 161.857 280.242 194.989C267.958 228.121 243.96 255.603 212.785 272.239C181.61 288.875 145.42 293.511 111.059 285.271C76.6972 277.031 46.5459 256.486 26.3064 227.521C6.06698 198.556 -2.85758 163.178 1.22037 128.079C5.29833 92.9791 22.0961 60.5902 48.4373 37.0369C74.7784 13.4835 108.837 0.398478 144.172 0.256057L144.383 52.5695C121.84 52.6604 100.112 61.0082 83.3075 76.0344C66.5027 91.0607 55.7863 111.724 53.1847 134.116C50.5831 156.508 56.2767 179.078 69.1888 197.557C82.1009 216.036 101.336 229.143 123.258 234.4C145.179 239.656 168.267 236.698 188.156 226.085C208.044 215.472 223.354 197.939 231.191 176.802C239.028 155.665 238.848 132.389 230.686 111.376C222.523 90.3627 206.944 73.0685 186.894 62.7638L210.808 16.2353Z" fill="#967E76" stroke="#967E76" stroke-width="36" mask="url(#path-1-inside-1_37_101)"/>
</svg>
