<svg width="276" height="289" viewBox="0 0 276 289" fill="none" xmlns="http://www.w3.org/2000/svg">
<mask id="path-1-inside-1_37_80" fill="white">
<path d="M261.214 229.694C242.512 255.316 215.898 274.072 185.479 283.068C155.06 292.064 122.525 290.8 92.8957 279.471C63.266 268.143 38.1873 247.379 21.5289 220.384C4.87042 193.388 -2.4421 161.662 0.719522 130.098C3.88114 98.5344 17.3412 68.8882 39.0231 45.7333C60.7049 22.5783 89.4037 7.2014 120.692 1.97485C151.98 -3.2517 184.118 1.96258 212.149 16.8132C240.179 31.6639 262.544 55.3256 275.793 84.1478L228.261 105.997C219.808 87.6098 205.54 72.5144 187.658 63.0402C169.775 53.566 149.272 50.2394 129.311 53.5738C109.35 56.9081 91.0416 66.7181 77.2093 81.4902C63.377 96.2622 54.7899 115.175 52.7729 135.312C50.7559 155.448 55.4211 175.689 66.0486 192.911C76.6761 210.133 92.6755 223.38 111.578 230.607C130.481 237.834 151.237 238.641 170.643 232.901C190.05 227.162 207.028 215.197 218.96 198.851L261.214 229.694Z"/>
</mask>
<path d="M261.214 229.694C242.512 255.316 215.898 274.072 185.479 283.068C155.06 292.064 122.525 290.8 92.8957 279.471C63.266 268.143 38.1873 247.379 21.5289 220.384C4.87042 193.388 -2.4421 161.662 0.719522 130.098C3.88114 98.5344 17.3412 68.8882 39.0231 45.7333C60.7049 22.5783 89.4037 7.2014 120.692 1.97485C151.98 -3.2517 184.118 1.96258 212.149 16.8132C240.179 31.6639 262.544 55.3256 275.793 84.1478L228.261 105.997C219.808 87.6098 205.54 72.5144 187.658 63.0402C169.775 53.566 149.272 50.2394 129.311 53.5738C109.35 56.9081 91.0416 66.7181 77.2093 81.4902C63.377 96.2622 54.7899 115.175 52.7729 135.312C50.7559 155.448 55.4211 175.689 66.0486 192.911C76.6761 210.133 92.6755 223.38 111.578 230.607C130.481 237.834 151.237 238.641 170.643 232.901C190.05 227.162 207.028 215.197 218.96 198.851L261.214 229.694Z" fill="#967E76" stroke="#967E76" stroke-width="36" mask="url(#path-1-inside-1_37_80)"/>
</svg>
