<svg width="270" height="289" viewBox="0 0 270 289" fill="none" xmlns="http://www.w3.org/2000/svg">
<mask id="path-1-inside-1_37_84" fill="white">
<path d="M208.826 273.893C183.57 286.448 155.192 291.338 127.191 287.96C99.1899 284.581 72.7894 273.082 51.2448 254.88C29.7002 236.678 13.9534 212.569 5.94594 185.525C-2.06151 158.481 -1.97953 129.685 6.18176 102.687C14.3431 75.6893 30.2268 51.6702 51.8747 33.591C73.5226 15.5118 99.9882 4.16317 128.008 0.944211C156.028 -2.27475 184.378 2.77675 209.562 15.4759C234.745 28.175 255.662 47.9665 269.733 72.4103L224.394 98.5092C215.418 82.9149 202.073 70.2886 186.007 62.187C169.941 54.0854 151.855 50.8627 133.979 52.9163C116.103 54.9699 99.2188 62.2099 85.4082 73.7438C71.5976 85.2777 61.4643 100.601 56.2576 117.825C51.051 135.048 50.9987 153.419 56.1072 170.672C61.2157 187.925 71.2616 203.306 85.0063 214.919C98.751 226.531 115.594 233.867 133.458 236.022C151.321 238.178 169.426 235.058 185.538 227.048L208.826 273.893Z"/>
</mask>
<path d="M208.826 273.893C183.57 286.448 155.192 291.338 127.191 287.96C99.1899 284.581 72.7894 273.082 51.2448 254.88C29.7002 236.678 13.9534 212.569 5.94594 185.525C-2.06151 158.481 -1.97953 129.685 6.18176 102.687C14.3431 75.6893 30.2268 51.6702 51.8747 33.591C73.5226 15.5118 99.9882 4.16317 128.008 0.944211C156.028 -2.27475 184.378 2.77675 209.562 15.4759C234.745 28.175 255.662 47.9665 269.733 72.4103L224.394 98.5092C215.418 82.9149 202.073 70.2886 186.007 62.187C169.941 54.0854 151.855 50.8627 133.979 52.9163C116.103 54.9699 99.2188 62.2099 85.4082 73.7438C71.5976 85.2777 61.4643 100.601 56.2576 117.825C51.051 135.048 50.9987 153.419 56.1072 170.672C61.2157 187.925 71.2616 203.306 85.0063 214.919C98.751 226.531 115.594 233.867 133.458 236.022C151.321 238.178 169.426 235.058 185.538 227.048L208.826 273.893Z" fill="#967E76" stroke="#967E76" stroke-width="36" mask="url(#path-1-inside-1_37_84)"/>
</svg>
