<svg width="250" height="250" viewBox="0 0 250 250" fill="none" xmlns="http://www.w3.org/2000/svg">
<path d="M238.622 28.4722H147.574V2.92041H131.476L0 25.6904V224.367L129.915 247.08H147.574V218.689H232.774C237.628 218.462 243.023 218.945 247.167 215.935C250.461 210.854 249.663 204.494 249.947 198.759V39.6016C250.6 33.0718 245.152 27.8477 238.622 28.4722V28.4722ZM83.269 134.426C76.8247 137.719 69.4429 137.265 62.4307 137.038L62.4023 170.339L45.5098 168.92L45.5381 77.9287C60.9546 78.6665 79.6353 71.8247 92.4111 83.3794C104.647 98.228 101.411 125.54 83.269 134.426V134.426ZM236.38 205.29H147.574V187.459H215.711V176.104H147.574V161.908H215.711V150.552H147.602C147.602 150.552 147.574 139.423 147.545 133.858C158.788 137.35 171.592 137.265 181.642 130.508C192.516 124.063 198.194 111.771 199.131 99.5059H161.769V62.4277L147.574 65.2954V41.8711H236.38V205.29V205.29ZM167.445 56.4936C187.176 57.4019 203.787 74.082 204.837 93.7568H167.445V56.4936ZM62.4023 93.2876C67.9951 93.0322 74.9224 92.0102 78.6982 97.2622C81.9351 102.827 81.7646 110.152 79.0674 115.887C75.8311 121.735 68.5059 121.167 62.8564 121.849C62.2607 112.338 62.3169 102.827 62.4023 93.2876V93.2876Z" fill="black"/>
</svg>
