<svg width="250" height="250" viewBox="0 0 250 250" fill="none" xmlns="http://www.w3.org/2000/svg">
<path d="M238.709 25.6089H147.61V2.89062H130.628L0 25.6655V224.391L129.862 247.109H147.61V224.476H232.859C237.687 224.249 243.054 224.618 247.2 221.665C250.522 216.582 249.671 210.221 249.955 204.484V36.627C250.551 30.1523 245.184 24.9556 238.709 25.6089V25.6089ZM94.7339 163.592C89.9917 166.063 82.8921 163.479 77.2695 163.876C73.4927 145.077 69.0908 126.392 65.7119 107.507C62.3892 125.852 58.0728 144.026 54.2676 162.257C48.8154 161.974 43.335 161.632 37.854 161.264C33.1396 136.273 27.6025 111.454 23.2007 86.4077C28.0566 86.1807 32.9409 85.9819 37.7969 85.8115C40.7217 103.901 44.0444 121.905 46.6006 140.022C50.6045 121.45 54.6934 102.878 58.6694 84.3066C64.0649 83.9941 69.4604 83.7671 74.856 83.4829C78.6328 102.651 82.4946 121.791 86.584 140.874C89.793 121.167 93.3423 101.515 96.7788 81.8359C102.458 81.6372 108.138 81.3247 113.789 80.9839C107.371 108.501 101.748 136.246 94.7339 163.592ZM236.439 210.989H147.61V193.154H221.443V181.795H147.61V167.596H221.443V156.237H147.61V142.038H221.443V130.68H147.61V116.48H221.443V105.122H147.61V90.9229H221.443V79.564H147.61V65.3652H221.443V54.0064H147.61V39.0112H236.439V210.989V210.989Z" fill="black"/>
</svg>
