<svg width="250" height="250" viewBox="0 0 250 250" fill="none" xmlns="http://www.w3.org/2000/svg">
<g clip-path="url(#clip0_37_71)">
<path d="M221.458 133.52H181.699V113.64H221.458V133.52ZM221.458 144.879H181.699V164.759H221.458V144.879ZM221.458 51.1616H181.699V71.041H221.458V51.1621V51.1616ZM221.458 82.4009H181.699V102.28H221.458V82.4009ZM221.458 176.119H181.699V195.999H221.458V176.118V176.119ZM248.92 215.31C247.785 221.217 240.685 221.359 235.942 221.558H147.62V247.117H129.984L0 224.397V25.6309L130.751 2.88281H147.62V25.5171H232.903C237.703 25.7158 242.985 25.375 247.16 28.2432C250.085 32.4463 249.801 37.7856 250 42.6133L249.886 190.46C249.745 198.725 250.653 207.16 248.92 215.31V215.31ZM104.14 170.751C96.3022 154.848 88.3223 139.058 80.5122 123.154C88.2368 107.676 95.8481 92.1421 103.431 76.6074C96.9839 76.9199 90.5371 77.3174 84.1191 77.772C79.3193 89.4438 73.7246 100.804 69.9761 112.874C66.4829 101.485 61.854 90.5229 57.6226 79.4189C51.3745 79.7598 45.1265 80.1289 38.8789 80.498C45.4673 95.0391 52.4824 109.38 58.8721 124.006C51.3462 138.206 44.3032 152.604 37.0044 166.889C43.2236 167.145 49.4434 167.4 55.6626 167.485C60.0933 156.183 65.6025 145.306 69.4648 133.775C72.9297 146.158 78.8081 157.603 83.6362 169.445C90.4805 169.928 97.2964 170.354 104.141 170.751H104.14ZM236.455 39.0049H147.62V51.1616H170.34V71.041H147.62V82.4009H170.34V102.28H147.62V113.64H170.34V133.52H147.62V144.879H170.34V164.759H147.62V176.119H170.34V195.999H147.62V209.132H236.455V39.0049Z" fill="black"/>
</g>
<defs>
<clipPath id="clip0_37_71">
<rect width="250" height="250" fill="white"/>
</clipPath>
</defs>
</svg>
