<svg width="122" height="122" viewBox="0 0 122 122" fill="none" xmlns="http://www.w3.org/2000/svg">
<path d="M29.9672 4.28906C29.0093 6.26013 26.8958 7.82468 24.7812 7.82468C27.6406 7.82468 30.5 10.6841 30.5 13.5434C30.5 10.6841 33.3594 7.82468 36.2188 7.82468C34.1042 7.82468 31.9909 6.26013 31.0328 4.28906H29.9672ZM99.125 7.625C99.125 9.53125 97.2188 11.4375 95.3125 11.4375C97.2188 11.4375 99.125 13.3438 99.125 15.25C99.125 13.3438 101.031 11.4375 102.938 11.4375C101.031 11.4375 99.125 9.53125 99.125 7.625ZM81.9688 17.1562C81.9688 20.0156 79.1094 22.875 76.25 22.875C79.1094 22.875 81.9688 25.7344 81.9688 28.5938C81.9688 25.7344 84.8281 22.875 87.6875 22.875C84.8281 22.875 81.9688 20.0156 81.9688 17.1562ZM4.28906 25.274V100.626C26.6899 99.6726 51.9889 99.2782 76.3436 92.5661C86.5604 89.9652 94.5984 86.9074 100.252 83.4323C105.906 79.9574 109.461 75.8733 109.461 71.127C109.439 69.072 108.601 66.9137 107.552 65.2886C106.757 64.1127 105.731 62.9868 104.507 61.9112C104.871 61.0166 105.058 60.0597 105.056 59.0938C105.056 54.9886 101.775 51.707 97.6696 51.707C93.5647 51.707 90.2829 54.9886 90.2829 59.0938C90.2829 63.1986 93.5647 66.4805 97.6696 66.4805C99.1979 66.4805 100.611 66.0253 101.785 65.2424C103.525 66.8646 105.093 68.8914 105.172 71.127C105.172 73.6422 103.061 76.6718 98.0063 79.778C92.9518 82.8845 85.2392 85.8756 75.2852 88.4097C53.375 93.8804 26.6982 95.8772 7.00547 96.299C12.7678 95.1655 18.0322 92.6595 22.4468 89.1348C28.8561 88.7116 34.5825 88.2024 40.6627 87.4483C40.0265 85.9623 39.7198 84.6485 39.8223 83.2283C35.4915 83.7323 31.0166 84.191 27.2706 84.4912C32.7001 78.191 35.9805 69.9846 35.9805 61C35.9805 42.5546 22.1578 27.3895 4.28906 25.274V25.274ZM36.1196 43.2023C36.8405 44.66 37.4719 46.1603 38.0101 47.6949C51.8996 49.0492 64.6405 51.1342 75.2852 53.8442C79.2869 54.8626 82.919 55.9561 86.1692 57.1003C86.4162 55.6763 86.9273 54.3111 87.6761 53.075C84.2639 51.8729 80.4864 50.7422 76.3441 49.6874C64.8256 46.7551 51.0672 44.5595 36.1199 43.2018L36.1196 43.2023ZM39.1996 51.7606C39.5431 53.2202 39.804 54.698 39.9812 56.187C46.3381 56.9809 52.1588 57.951 57.2623 59.0711C64.5675 60.6747 70.4369 62.5929 74.3013 64.5983C76.2338 65.6007 77.6528 66.6294 78.4965 67.5344C79.34 68.4394 79.5859 69.1156 79.5859 69.6975C79.5859 70.2794 79.3405 70.9556 78.4965 71.8606C77.653 72.7656 76.2336 73.7943 74.3013 74.7967C70.4371 76.8021 64.5675 78.7205 57.2623 80.3239C56.4751 80.4966 55.6864 80.6623 54.8962 80.821C55.4407 82.3126 55.6458 83.6548 55.4242 85.09C56.3321 84.9099 57.3074 84.7052 58.1821 84.5134C65.7103 82.8611 71.8451 80.9034 76.2764 78.604C78.4925 77.454 80.2939 76.2228 81.634 74.7855C82.9738 73.3487 83.8752 71.5997 83.8752 69.6975C83.8752 67.7955 82.9738 66.0466 81.634 64.6092C80.2939 63.1724 78.4925 61.941 76.2767 60.7913C71.8456 58.4918 65.7108 56.5339 58.1826 54.8819C52.5679 53.6495 46.1815 52.5968 39.2001 51.7609L39.1996 51.7606ZM47.6562 80.3008C45.6571 80.3008 44.082 81.8758 44.082 83.875C44.082 85.8742 45.6571 87.4492 47.6562 87.4492C49.6554 87.4492 51.2305 85.8742 51.2305 83.875C51.2305 81.8758 49.6554 80.3008 47.6562 80.3008ZM61 102.938C61 104.844 59.0938 106.75 57.1875 106.75C59.0938 106.75 61 108.656 61 110.562C61 108.656 62.9062 106.75 64.8125 106.75C62.9062 106.75 61 104.844 61 102.938Z" fill="black"/>
</svg>
