<svg width="114" height="114" viewBox="0 0 114 114" fill="none" xmlns="http://www.w3.org/2000/svg">
<path d="M56.9847 37.9919C46.5183 37.9919 37.9769 46.5334 37.9769 57C37.9769 67.4666 46.5183 76.0081 56.9847 76.0081C67.4511 76.0081 75.9924 67.4666 75.9924 57C75.9924 46.5334 67.4511 37.9919 56.9847 37.9919ZM113.994 57C113.994 49.1287 114.065 41.3287 113.623 33.4716C113.181 24.3454 111.099 16.246 104.426 9.57246C97.738 2.88469 89.6529 0.81704 80.5269 0.374992C72.6557 -0.0670569 64.8558 0.00424144 56.9989 0.00424144C49.1278 0.00424144 41.3279 -0.0670569 33.471 0.374992C24.345 0.81704 16.2457 2.89895 9.57228 9.57246C2.88463 16.2602 0.817025 24.3454 0.374985 33.4716C-0.0670557 41.3429 0.00424137 49.1429 0.00424137 57C0.00424137 64.8571 -0.0670557 72.6713 0.374985 80.5284C0.817025 89.6546 2.89889 97.754 9.57228 104.428C16.2599 111.115 24.345 113.183 33.471 113.625C41.3422 114.067 49.142 113.996 56.9989 113.996C64.8701 113.996 72.67 114.067 80.5269 113.625C89.6529 113.183 97.7522 111.101 104.426 104.428C111.113 97.7398 113.181 89.6546 113.623 80.5284C114.079 72.6713 113.994 64.8713 113.994 57V57ZM56.9847 86.2465C40.8003 86.2465 27.7387 73.1847 27.7387 57C27.7387 40.8153 40.8003 27.7535 56.9847 27.7535C73.1691 27.7535 86.2306 40.8153 86.2306 57C86.2306 73.1847 73.1691 86.2465 56.9847 86.2465ZM87.4284 33.386C83.6497 33.386 80.5982 30.3345 80.5982 26.5557C80.5982 22.7769 83.6497 19.7253 87.4284 19.7253C91.2072 19.7253 94.2587 22.7769 94.2587 26.5557C94.2598 27.453 94.0839 28.3417 93.741 29.1709C93.3982 30.0001 92.8951 30.7535 92.2607 31.388C91.6262 32.0225 90.8728 32.5256 90.0436 32.8684C89.2144 33.2113 88.3257 33.3872 87.4284 33.386V33.386Z" fill="black"/>
</svg>
