<svg width="250" height="256" viewBox="0 0 250 256" fill="none" xmlns="http://www.w3.org/2000/svg">
<g clip-path="url(#clip0_37_56)">
<path d="M208.496 0H41.5039C18.5819 0 0 19.4846 0 43.52V212.07C0 236.106 18.5819 255.59 41.5039 255.59H208.496C231.418 255.59 250 236.106 250 212.07V43.52C250 19.4846 231.418 0 208.496 0Z" fill="#001E36"/>
<path d="M56.293 179.236V66.8641C56.293 66.0449 56.6289 65.6333 57.2998 65.6333L58.3613 65.6302L60.1758 65.6097L62.6973 65.5575L71.1445 65.3701L80.2021 65.194C83.3877 65.1366 86.5459 65.1059 89.6768 65.1059C98.1729 65.1059 105.328 66.22 111.144 68.4472C116.389 70.3078 121.173 73.3716 125.147 77.4154C128.516 80.9209 131.12 85.1511 132.778 89.814C134.347 94.3516 135.142 99.1433 135.127 103.97C135.127 113.351 133.058 121.088 128.921 127.183C124.875 133.129 119.231 137.676 112.71 140.245L112.15 140.46C105.341 143.123 97.7998 144.086 89.5293 144.146L88.2441 144.151L86.3369 144.14L85.375 144.126L84.3027 144.099L83.6562 144.073L83.2637 144.051L82.2979 144.014L81.1172 143.989L79.3398 143.975L78.9443 143.974V179.06C78.9737 179.275 78.9549 179.494 78.8895 179.7C78.824 179.906 78.7136 180.094 78.5671 180.247C78.4206 180.401 78.242 180.517 78.0454 180.585C77.8488 180.654 77.6397 180.674 77.4346 180.643H57.4678C56.6836 180.643 56.293 180.176 56.293 179.236V179.236ZM78.9453 86.7359V123.387C80.2838 123.5 81.6259 123.559 82.9687 123.563H88.5039C92.3201 123.55 96.1141 122.954 99.7666 121.795L100.495 121.556C103.818 120.521 106.787 118.506 109.049 115.752C111.15 113.153 112.239 109.572 112.314 105.008L112.319 104.497C112.407 101.095 111.563 97.7388 109.887 94.8255C108.124 92.008 105.577 89.828 102.592 88.5821C98.6933 86.9934 94.5291 86.2459 90.3486 86.3846L88.2217 86.3908L86.8799 86.4031L85.5996 86.4205L83.793 86.4573L82.4746 86.4963L81.79 86.5229L80.875 86.5679L80.0957 86.6181L79.6514 86.655L79.2676 86.6939L79.0986 86.7144L78.9453 86.7359V86.7359ZM199.971 116.723C197.045 115.146 193.942 113.962 190.734 113.198L189.992 113.03C186.463 112.181 182.861 111.713 179.241 111.634L178.337 111.623C176.215 111.563 174.096 111.83 172.048 112.415C170.744 112.719 169.585 113.497 168.776 114.612C168.23 115.504 167.939 116.542 167.938 117.602C167.969 118.631 168.323 119.619 168.944 120.415C169.834 121.507 170.904 122.421 172.104 123.116L172.467 123.317C174.858 124.667 177.322 125.871 179.846 126.922C185.474 128.897 190.852 131.584 195.861 134.923C199.274 137.182 202.098 140.294 204.08 143.981C205.746 147.471 206.58 151.332 206.512 155.234C206.612 160.388 205.208 165.45 202.486 169.743C199.573 174.1 195.527 177.488 190.83 179.502C185.911 181.769 179.87 182.94 172.708 183.016L171.964 183.021C167.524 183.068 163.09 182.66 158.726 181.804L157.792 181.614C154.117 180.907 150.54 179.725 147.143 178.096C146.801 177.911 146.513 177.635 146.306 177.295C146.1 176.955 145.984 176.563 145.969 176.161V156.994C145.949 156.807 145.977 156.619 146.051 156.449C146.125 156.278 146.242 156.132 146.389 156.026C146.533 155.941 146.698 155.903 146.863 155.919C147.027 155.935 147.184 156.003 147.311 156.114C151.323 158.595 155.68 160.404 160.224 161.478C164.229 162.531 168.338 163.091 172.467 163.149C176.379 163.149 179.258 162.62 181.104 161.566C181.937 161.166 182.642 160.521 183.133 159.709C183.624 158.898 183.881 157.955 183.871 156.994C183.871 155.472 183.032 154.006 181.355 152.598C180.652 152.008 179.644 151.366 178.331 150.672L177.703 150.349L177.033 150.018L176.682 149.85L175.945 149.508C175.818 149.45 175.69 149.392 175.562 149.334L174.761 148.982L174.344 148.803L173.479 148.439L173.029 148.255L172.099 147.879L171.125 147.497C165.859 145.575 160.866 142.913 156.282 139.583C153.004 137.193 150.305 134.031 148.4 130.351C146.751 126.886 145.917 123.057 145.969 119.184C145.959 114.532 147.178 109.967 149.49 105.995C152.127 101.623 155.912 98.1412 160.392 95.9724C165.311 93.3949 171.459 92.1047 178.839 92.1027C183.161 92.0663 187.479 92.3899 191.753 93.0703C194.847 93.4819 197.873 94.3399 200.743 95.6201C201.205 95.7594 201.577 96.1167 201.749 96.5878C201.863 97.0168 201.919 97.4602 201.917 97.9067V115.668C201.941 116.088 201.749 116.49 201.414 116.723C201.19 116.84 200.943 116.9 200.692 116.9C200.442 116.9 200.195 116.84 199.971 116.723V116.723Z" fill="#31A8FF"/>
</g>
<defs>
<clipPath id="clip0_37_56">
<rect width="250" height="256" fill="white"/>
</clipPath>
</defs>
</svg>
