<svg width="250" height="256" viewBox="0 0 250 256" fill="none" xmlns="http://www.w3.org/2000/svg">
<g clip-path="url(#clip0_37_59)">
<path d="M208.496 0H41.5039C18.5819 0 0 19.4846 0 43.52V212.07C0 236.106 18.5819 255.59 41.5039 255.59H208.496C231.418 255.59 250 236.106 250 212.07V43.52C250 19.4846 231.418 0 208.496 0Z" fill="#330000"/>
<path d="M121.146 153.385H82.4062L74.5234 179.06C74.4162 179.528 74.1564 179.942 73.789 180.231C73.4216 180.52 72.9695 180.666 72.5107 180.643H52.8887C51.7705 180.643 51.3789 179.998 51.7148 178.707L85.2568 77.4154C85.5918 76.3607 85.9277 75.1595 86.2627 73.8109C86.7021 71.4639 86.9267 69.0801 86.9336 66.689C86.9108 66.5218 86.9254 66.3512 86.9763 66.1909C87.0272 66.0306 87.113 65.8849 87.2269 65.7654C87.3407 65.6459 87.4796 65.5558 87.6324 65.5023C87.7853 65.4488 87.9479 65.4333 88.1074 65.4571H114.773C115.555 65.4571 116.002 65.751 116.115 66.3378L154.185 178.884C154.52 180.057 154.185 180.644 153.179 180.643H131.376C131.002 180.686 130.625 180.585 130.316 180.359C130.008 180.132 129.788 179.796 129.699 179.412L121.146 153.385V153.385ZM88.4433 131.228H114.941L114.563 129.92L113.957 127.849L113.524 126.395L112.834 124.106L111.366 119.286L110.075 115.013L106.723 103.882C105.888 101.115 105.087 98.3367 104.32 95.5484L103.707 93.2854L102.99 90.6097L101.896 86.4625L101.691 85.6811H101.524C100.685 89.9022 99.6634 94.081 98.4619 98.2047L95.9736 106.597L94.6045 111.234L93.2226 115.928C92.9726 116.776 92.7246 117.615 92.4756 118.443L91.7334 120.899L90.9951 123.297L90.2607 125.636L89.5303 127.916C89.2881 128.667 89.0459 129.407 88.8047 130.138L88.4433 131.228V131.228ZM176.823 84.098C175.113 84.17 173.407 83.8627 171.818 83.196C170.228 82.5294 168.791 81.5185 167.6 80.2294C166.412 78.8843 165.489 77.3063 164.884 75.5861C164.28 73.8658 164.005 72.0372 164.077 70.2054C164.016 68.392 164.321 66.5856 164.971 64.904C165.621 63.2225 166.603 61.7036 167.851 60.4467C170.258 58.0235 173.464 56.6675 176.801 56.661L177.158 56.6651C181.184 56.6651 184.343 57.9246 186.635 60.4457C187.792 61.7556 188.691 63.2919 189.28 64.9666C189.87 66.6413 190.139 68.4215 190.072 70.2054C190.143 72.0445 189.86 73.8796 189.24 75.6018C188.621 77.3239 187.678 78.898 186.467 80.2304C185.244 81.494 183.793 82.4883 182.198 83.1548C180.604 83.8214 178.898 84.1466 177.182 84.1113L176.823 84.098V84.098ZM165.251 178.884V94.8255C165.251 93.7707 165.696 93.2424 166.593 93.2424H187.222C188.115 93.2424 188.562 93.7697 188.563 94.8255V178.884C188.563 180.057 188.116 180.644 187.222 180.643H166.761C165.808 180.643 165.306 180.116 165.256 179.064L165.251 178.884Z" fill="#FF9A00"/>
</g>
<defs>
<clipPath id="clip0_37_59">
<rect width="250" height="256" fill="white"/>
</clipPath>
</defs>
</svg>
