<svg width="250" height="256" viewBox="0 0 250 256" fill="none" xmlns="http://www.w3.org/2000/svg">
<g clip-path="url(#clip0_37_73)">
<path d="M208.496 0H41.5039C18.5819 0 0 19.4846 0 43.52V212.07C0 236.106 18.5819 255.59 41.5039 255.59H208.496C231.418 255.59 250 236.106 250 212.07V43.52C250 19.4846 231.418 0 208.496 0Z" fill="#001E36"/>
<path d="M131.292 180.643H65.2148C64.0957 180.643 63.5371 179.998 63.5381 178.707V67.0413C63.5087 66.8263 63.5275 66.6071 63.5929 66.4011C63.6583 66.195 63.7686 66.0078 63.915 65.8542C64.0614 65.7006 64.2399 65.5848 64.4364 65.5161C64.6328 65.4473 64.8418 65.4275 65.0469 65.4582H85.5078C85.6673 65.4346 85.8298 65.4502 85.9825 65.5038C86.1353 65.5574 86.2741 65.6475 86.3879 65.7669C86.5017 65.8864 86.5875 66.032 86.6385 66.1922C86.6895 66.3524 86.7042 66.5228 86.6816 66.69V158.487H134.813C135.819 158.487 136.211 159.014 135.988 160.069L132.969 179.061C132.962 179.32 132.897 179.574 132.781 179.803C132.665 180.032 132.499 180.229 132.298 180.38C131.987 180.549 131.642 180.64 131.292 180.644V180.643ZM147.894 93.2423H166.174C167.193 93.2526 168.084 93.9694 168.353 95.0016C168.753 95.7718 169.036 96.6022 169.193 97.4633C169.427 98.5948 169.594 99.7396 169.695 100.893C169.806 102.124 169.861 103.442 169.863 104.849C172.998 101.022 176.779 97.8323 181.016 95.4409C185.775 92.7424 191.119 91.3794 196.529 91.4841C196.734 91.4535 196.943 91.4733 197.14 91.5421C197.336 91.6108 197.515 91.7265 197.661 91.8802C197.808 92.0338 197.918 92.221 197.983 92.427C198.049 92.6331 198.067 92.8523 198.038 93.0672V114.346C198.038 115.167 197.479 115.577 196.361 115.577C189.606 115.138 182.848 116.405 176.655 119.269C174.551 120.224 172.643 121.598 171.037 123.314V179.061C171.037 180.115 170.59 180.643 169.695 180.643H149.402C149.175 180.677 148.942 180.655 148.724 180.579C148.506 180.503 148.307 180.374 148.144 180.204C147.982 180.033 147.859 179.825 147.786 179.596C147.714 179.367 147.693 179.123 147.726 178.885V118.39C147.726 116.917 147.717 115.396 147.698 113.826L147.664 111.436C147.657 111.031 147.65 110.624 147.642 110.213C147.599 108.075 147.541 105.937 147.468 103.8L147.39 101.684C147.316 99.2682 147.092 96.8598 146.72 94.4742C146.68 94.3148 146.679 94.1477 146.715 93.9875C146.751 93.8273 146.824 93.6789 146.928 93.555C147.031 93.4312 147.162 93.3357 147.309 93.2769C147.455 93.2181 147.614 93.1978 147.77 93.2178L147.894 93.2423V93.2423Z" fill="#31A8FF"/>
</g>
<defs>
<clipPath id="clip0_37_73">
<rect width="250" height="256" fill="white"/>
</clipPath>
</defs>
</svg>
