<svg width="114" height="114" viewBox="0 0 114 114" fill="none" xmlns="http://www.w3.org/2000/svg">
<path d="M109.44 0H4.56C2.03775 0 0 2.03775 0 4.56V109.44C0 111.962 2.03775 114 4.56 114H109.44C111.962 114 114 111.962 114 109.44V4.56C114 2.03775 111.962 0 109.44 0ZM87.6802 41.2823C87.723 41.952 87.723 42.6503 87.723 43.3343C87.723 64.2533 71.7915 88.35 42.6787 88.35C33.7012 88.35 25.3792 85.7423 18.3682 81.2535C19.6507 81.396 20.8763 81.453 22.1873 81.453C29.5973 81.453 36.4088 78.945 41.838 74.6985C34.884 74.556 29.0415 69.996 27.0465 63.726C29.4832 64.0823 31.6777 64.0823 34.1857 63.441C30.6051 62.7135 27.3867 60.7689 25.0774 57.9374C22.768 55.1059 21.5102 51.5623 21.5175 47.9085V47.709C23.6122 48.8917 26.0775 49.6185 28.6568 49.7182C26.4885 48.2732 24.7103 46.3155 23.4799 44.0187C22.2494 41.7218 21.6048 39.1569 21.603 36.5512C21.603 33.6015 22.3725 30.9082 23.7548 28.5712C27.7291 33.4638 32.6885 37.4653 38.3106 40.3156C43.9327 43.1659 50.0917 44.8013 56.3873 45.1155C54.15 34.3568 62.187 25.65 71.8485 25.65C76.4085 25.65 80.5125 27.5595 83.4052 30.6375C86.982 29.9677 90.402 28.6282 93.4515 26.8327C92.2687 30.495 89.7892 33.5872 86.4975 35.5395C89.6895 35.1975 92.7675 34.314 95.6175 33.0743C93.4657 36.2378 90.7725 39.045 87.6802 41.2823V41.2823Z" fill="black"/>
</svg>
